<svg width="22" height="24" viewBox="0 0 22 24" fill="none" xmlns="http://www.w3.org/2000/svg">
<path d="M21.2601 17.2434C20.653 16.1978 19.7507 13.2392 19.7507 9.375C19.7507 7.05436 18.8288 4.82876 17.1879 3.18782C15.5469 1.54687 13.3213 0.625 11.0007 0.625C8.68004 0.625 6.45444 1.54687 4.8135 3.18782C3.17256 4.82876 2.25069 7.05436 2.25069 9.375C2.25069 13.2403 1.34725 16.1978 0.740217 17.2434C0.5852 17.5093 0.50302 17.8113 0.501963 18.119C0.500907 18.4267 0.581012 18.7293 0.7342 18.9962C0.887387 19.263 1.10824 19.4848 1.37449 19.6391C1.64073 19.7934 1.94296 19.8748 2.25069 19.875H6.71428C6.91615 20.8628 7.45302 21.7506 8.23408 22.3882C9.01514 23.0258 9.99244 23.374 11.0007 23.374C12.0089 23.374 12.9862 23.0258 13.7673 22.3882C14.5483 21.7506 15.0852 20.8628 15.2871 19.875H19.7507C20.0583 19.8746 20.3604 19.7931 20.6265 19.6387C20.8926 19.4843 21.1133 19.2625 21.2663 18.9957C21.4194 18.7288 21.4994 18.4263 21.4983 18.1187C21.4972 17.8111 21.415 17.5092 21.2601 17.2434ZM11.0007 21.625C10.458 21.6248 9.92868 21.4565 9.48562 21.1431C9.04256 20.8297 8.70752 20.3867 8.52662 19.875H13.4747C13.2938 20.3867 12.9588 20.8297 12.5157 21.1431C12.0727 21.4565 11.5434 21.6248 11.0007 21.625ZM2.25069 18.125C3.09287 16.6769 4.00069 13.3212 4.00069 9.375C4.00069 7.51848 4.73818 5.73801 6.05094 4.42525C7.36369 3.1125 9.14417 2.375 11.0007 2.375C12.8572 2.375 14.6377 3.1125 15.9504 4.42525C17.2632 5.73801 18.0007 7.51848 18.0007 9.375C18.0007 13.318 18.9063 16.6736 19.7507 18.125H2.25069Z" fill="#333333"/>
</svg>
