<svg width="50" height="51" viewBox="0 0 50 51" fill="none" xmlns="http://www.w3.org/2000/svg">
<rect x="0.5" y="0.602997" width="49" height="49" rx="24.5" stroke="#96A0B5"/>
<g clip-path="url(#clip0_16_14879)">
<g clip-path="url(#clip1_16_14879)">
<path fill-rule="evenodd" clip-rule="evenodd" d="M35.5593 25.353C35.5593 24.5727 35.4888 23.8235 35.3593 23.1033H24.9998V27.3582H30.9199C30.665 28.7333 29.8899 29.8981 28.7251 30.6784V33.4379H32.2805C34.3603 31.5229 35.5603 28.7032 35.5603 25.353H35.5593Z" fill="#4285F4"/>
<path fill-rule="evenodd" clip-rule="evenodd" d="M24.9993 36.1032C27.9692 36.1032 30.4594 35.1177 32.2791 33.4379L28.7236 30.6784C27.7382 31.3385 26.4791 31.7281 24.9983 31.7281C22.133 31.7281 19.7082 29.7934 18.8429 27.1934H15.1693V30.0431C16.9797 33.6379 20.6988 36.1032 24.9993 36.1032Z" fill="#34A853"/>
<path fill-rule="evenodd" clip-rule="evenodd" d="M18.8445 27.1925C18.6248 26.5324 18.4995 25.8278 18.4995 25.1024C18.4995 24.377 18.6248 23.6723 18.8445 23.0122V20.1625H15.1699C14.4249 21.6475 14 23.3273 14 25.1024C14 26.8775 14.4249 28.5573 15.1699 30.0422L18.8445 27.1925Z" fill="#FBBC05"/>
<path fill-rule="evenodd" clip-rule="evenodd" d="M24.9993 18.4781C26.6138 18.4781 28.0646 19.0335 29.2045 20.1227L32.3599 16.9672C30.4542 15.1931 27.9641 14.103 24.9993 14.103C20.6988 14.103 16.9797 16.5683 15.1693 20.1631L18.8439 23.0128C19.7092 20.4128 22.134 18.4781 24.9993 18.4781Z" fill="#EA4335"/>
</g>
</g>
<defs>
<clipPath id="clip0_16_14879">
<rect width="22" height="22" fill="white" transform="translate(14 14.103)"/>
</clipPath>
<clipPath id="clip1_16_14879">
<rect width="22" height="22" fill="white" transform="translate(14 14.103)"/>
</clipPath>
</defs>
</svg>
