<svg width="30" height="30" viewBox="0 0 30 30" fill="none" xmlns="http://www.w3.org/2000/svg">
<rect width="30" height="30" rx="15" fill="#02B152"/>
<g clip-path="url(#clip0_2609_741)">
<path d="M17.7733 7.89668C18.3477 7.3224 19.1265 6.99985 19.9386 7C20.7507 7.00015 21.5295 7.32298 22.1036 7.89748C22.6777 8.47198 23.0002 9.25107 23 10.0634C22.9999 10.8757 22.6771 11.6547 22.1028 12.229L21.7285 12.6033L17.3991 8.27263L17.7733 7.89668ZM16.2683 9.4037L8.03965 17.6331C7.92858 17.7447 7.85291 17.8866 7.82214 18.0411L7.01606 22.0406C6.98976 22.1698 6.99583 22.3036 7.03373 22.43C7.07162 22.5563 7.14017 22.6713 7.23326 22.7648C7.32635 22.8582 7.4411 22.9271 7.56728 22.9655C7.69346 23.0038 7.82717 23.0103 7.95648 22.9845L11.9613 22.1846C12.1158 22.1533 12.2577 22.0771 12.3691 21.9654L20.5978 13.7344L16.2683 9.4037Z" fill="white"/>
</g>
<defs>
<clipPath id="clip0_2609_741">
<rect width="16" height="16" fill="white" transform="translate(7 7)"/>
</clipPath>
</defs>
</svg>
