<svg width="20" height="20" viewBox="0 0 20 20" fill="transparent" xmlns="http://www.w3.org/2000/svg">
<path d="M13.4667 1.12085C14.1846 0.402994 15.1582 -0.000187456 16.1733 6.53835e-08C17.1884 0.000187587 18.1618 0.403729 18.8795 1.12185C19.5971 1.83997 20.0002 2.81384 20 3.82923C19.9998 4.84462 19.5964 5.81835 18.8785 6.5362L18.4107 7.00414L12.9988 1.59079L13.4667 1.12085ZM11.5854 3.00462L1.29956 13.2914C1.16073 13.4309 1.06614 13.6083 1.02767 13.8013L0.0200764 18.8007C-0.0127955 18.9623 -0.00520878 19.1295 0.0421608 19.2874C0.0895304 19.4454 0.175212 19.5891 0.291576 19.7059C0.40794 19.8227 0.551373 19.9089 0.709102 19.9568C0.866831 20.0048 1.03396 20.0129 1.1956 19.9806L6.20158 18.9807C6.3948 18.9417 6.57217 18.8463 6.71138 18.7067L16.9972 8.41797L11.5854 3.00462Z" fill="black"/>
</svg>
