<svg fill="none" height="18" viewBox="0 0 20 18" width="20" xmlns="http://www.w3.org/2000/svg"><path d="m6.43092 6.7762.00005-.00005 5.28263-5.28264.6528.48978c.1185.08892.2079.21093.2571.35063l.4716-.16611-.4716.16611c.0492.1397.056.29084.0194.43437v.00014l-.9609 3.775-.1586.62333h.6432 5.3333c.3094 0 .6062.12292.825.34171s.3417.51554.3417.82496v1.75337.0005c.0001.1524-.0296.3035-.0875.4445l-2.579 6.262c-.0251.061-.0679.1133-.1228.15s-.1195.0563-.1855.0563h-.0002-9.02502c-.0884 0-.17318-.0351-.2357-.0976-.06251-.0625-.09763-.1473-.09763-.2357v-9.65493c0-.00004 0-.00007 0-.00011.00005-.08836.03518-.17309.09767-.23556zm5.33388-5.33389c-.0002.00016-.0003.00034-.0005.0005zm-10.09821 6.55778h2v9.00001h-2c-.08841 0-.17319-.0351-.23571-.0976-.06251-.0625-.09763-.1473-.09763-.2357v-8.33337c0-.08841.03512-.17319.09763-.23571.06252-.06251.1473-.09763.23571-.09763z" stroke="#6f6f6f"/></svg>