<svg width="36" height="36" viewBox="0 0 36 36" fill="none" xmlns="http://www.w3.org/2000/svg">
<circle cx="18" cy="18" r="17" fill="#F5F6F7"/>
<circle cx="18" cy="18" r="16.5" stroke="#DFDFDF" stroke-opacity="0.4"/>
<path d="M25 20C25.7956 20 26.5587 20.3161 27.1213 20.8787C27.6839 21.4413 28 22.2044 28 23V23.715C28 27.292 23.79 30 18 30C12.21 30 8 27.433 8 23.715V23C8 22.2044 8.31607 21.4413 8.87868 20.8787C9.44129 20.3161 10.2044 20 11 20H25ZM18 6C18.7879 6 19.5681 6.15519 20.2961 6.45672C21.0241 6.75825 21.6855 7.20021 22.2426 7.75736C22.7998 8.31451 23.2417 8.97595 23.5433 9.7039C23.8448 10.4319 24 11.2121 24 12C24 12.7879 23.8448 13.5681 23.5433 14.2961C23.2417 15.0241 22.7998 15.6855 22.2426 16.2426C21.6855 16.7998 21.0241 17.2417 20.2961 17.5433C19.5681 17.8448 18.7879 18 18 18C16.4087 18 14.8826 17.3679 13.7574 16.2426C12.6321 15.1174 12 13.5913 12 12C12 10.4087 12.6321 8.88258 13.7574 7.75736C14.8826 6.63214 16.4087 6 18 6Z" fill="#DFDFDF"/>
</svg>
