<svg width="20" height="14" viewBox="0 0 20 14" fill="none" xmlns="http://www.w3.org/2000/svg">
<path d="M19.8729 6.61105C19.6942 6.36663 15.4371 0.626427 9.9999 0.626427C4.56274 0.626427 0.305391 6.36663 0.126914 6.61081C-0.0423048 6.84269 -0.0423048 7.15718 0.126914 7.38906C0.305391 7.63347 4.56274 13.3737 9.9999 13.3737C15.4371 13.3737 19.6942 7.63343 19.8729 7.38925C20.0423 7.15742 20.0423 6.84269 19.8729 6.61105ZM9.9999 12.055C5.99486 12.055 2.52606 8.24511 1.49922 6.9996C2.52473 5.753 5.98626 1.9451 9.9999 1.9451C14.0048 1.9451 17.4733 5.75433 18.5006 7.0005C17.4751 8.24707 14.0135 12.055 9.9999 12.055Z" fill="#C1C1C1"/>
</svg>
