<svg fill="none" height="20" viewBox="0 0 20 20" width="20" xmlns="http://www.w3.org/2000/svg"><g fill="#c1c1c1"><path d="m19.8729 9.61105c-.1787-.24442-4.4358-5.98462-9.873-5.98462-5.43716 0-9.694509 5.7402-9.872986 5.98438-.1692188.23188-.1692188.54639 0 .77829.178477.2444 4.435826 5.9846 9.872986 5.9846 5.4372 0 9.6943-5.7403 9.873-5.9844.1694-.2319.1694-.54661 0-.77825zm-9.873 5.44395c-4.00504 0-7.47384-3.8099-8.50068-5.0554 1.02551-1.2466 4.48704-5.0545 8.50068-5.0545 4.0049 0 7.4734 3.80923 8.5007 5.0554-1.0255 1.2466-4.4871 5.0545-8.5007 5.0545z"/><path d="m10 6.04384c-2.18133 0-3.95605 1.77473-3.95605 3.95606 0 2.1813 1.77472 3.9561 3.95605 3.9561 2.1813 0 3.9561-1.7748 3.9561-3.9561 0-2.18133-1.7748-3.95606-3.9561-3.95606zm0 6.59336c-1.4543 0-2.63734-1.183-2.63734-2.6373 0-1.45426 1.18308-2.63735 2.63734-2.63735 1.4543 0 2.6373 1.18309 2.6373 2.63735 0 1.4543-1.183 2.6373-2.6373 2.6373z"/></g></svg>